<svg viewBox="0 0 21.0491 36" fill="none" xmlns="http://www.w3.org/2000/svg">
  <path d="M10.5245 13.2822C4.71228 13.2822 0 17.8902 0 23.7078C0 31.7459 10.5548 36.0112 10.5245 35.9997C10.4957 36.0112 21.0491 31.7459 21.0491 23.7078C21.0491 17.8945 16.3368 13.2822 10.5245 13.2822ZM10.5245 27.9285C9.73639 27.9279 8.96612 27.6936 8.3111 27.2552C7.65609 26.8168 7.14574 26.194 6.84459 25.4656C6.54345 24.7371 6.46502 23.9357 6.61923 23.1626C6.77345 22.3896 7.15337 21.6796 7.71097 21.1226C8.26857 20.5655 8.97881 20.1862 9.75188 20.0328C10.525 19.8794 11.3261 19.9587 12.0542 20.2607C12.7822 20.5627 13.4043 21.0738 13.8419 21.7294C14.2795 22.385 14.5129 23.1557 14.5126 23.944C14.5136 24.4682 14.4111 24.9875 14.211 25.472C14.011 25.9565 13.7173 26.3968 13.3468 26.7676C12.9763 27.1384 12.5364 27.4325 12.0521 27.6329C11.5677 27.8334 11.0487 27.9362 10.5245 27.9357V27.9285Z" fill="#FF6F0F"/>
  <path d="M12.8944 0C10.4381 0 8.72773 1.71648 8.4585 3.744C5.18452 2.83968 2.6189 5.328 2.6189 8.064C2.6189 10.1592 4.05864 11.8512 5.97782 12.4013C7.52554 12.8434 10.3129 12.5136 10.3129 12.5136C10.2985 11.8368 10.9219 11.0938 11.8836 10.417C14.6192 8.49312 16.7586 7.58592 17.0883 4.96224C17.4339 2.2176 15.3966 0 12.8944 0Z" fill="#00A05B"/>
</svg>